<?xml version="1.0" encoding="UTF-8" standalone="no"?>
<!-- Created with Inkscape (http://www.inkscape.org/) -->

<svg
   width="194.20488mm"
   height="60.110062mm"
   viewBox="0 0 194.20488 60.110062"
   version="1.1"
   id="svg1"
   inkscape:version="1.3.2 (091e20ef0f, 2023-11-25)"
   sodipodi:docname="Intergate-logo-goth-mirror.svg"
   inkscape:export-filename="Intergate-logo-goth-mirror.png"
   inkscape:export-xdpi="96"
   inkscape:export-ydpi="96"
   xmlns:inkscape="http://www.inkscape.org/namespaces/inkscape"
   xmlns:sodipodi="http://sodipodi.sourceforge.net/DTD/sodipodi-0.dtd"
   xmlns="http://www.w3.org/2000/svg"
   xmlns:svg="http://www.w3.org/2000/svg">
  <sodipodi:namedview
     id="namedview1"
     pagecolor="#ffffff"
     bordercolor="#000000"
     borderopacity="0.25"
     inkscape:showpageshadow="2"
     inkscape:pageopacity="0.0"
     inkscape:pagecheckerboard="0"
     inkscape:deskcolor="#d1d1d1"
     inkscape:document-units="mm"
     inkscape:zoom="1.0141844"
     inkscape:cx="341.65386"
     inkscape:cy="226.29022"
     inkscape:window-width="1920"
     inkscape:window-height="1011"
     inkscape:window-x="0"
     inkscape:window-y="0"
     inkscape:window-maximized="1"
     inkscape:current-layer="layer3"
     showguides="true" />
  <defs
     id="defs1" />
  <g
     inkscape:groupmode="layer"
     id="layer3"
     inkscape:label="BG">
    <rect
       style="vector-effect:non-scaling-stroke;fill:none;fill-opacity:1;fill-rule:evenodd;stroke:none;stroke-width:0.257476;stroke-linecap:round;stroke-linejoin:round;stroke-dasharray:none;stroke-dashoffset:2.0126;stroke-opacity:1;-inkscape-stroke:hairline;paint-order:stroke markers fill"
       id="rect6"
       width="194.20488"
       height="60.110062"
       x="3.6034443"
       y="36.606144"
       ry="0.3055411"
       transform="translate(-3.6034443,-36.606144)" />
  </g>
  <g
     inkscape:groupmode="layer"
     id="layer2"
     inkscape:label="Layer 2"
     transform="translate(-3.6034443,-36.606144)">
    <path
       id="rect4-7-6"
       style="vector-effect:non-scaling-stroke;fill:currentColor;fill-rule:evenodd;stroke-width:0.173325;stroke-linecap:round;stroke-linejoin:round;stroke-dashoffset:2.0126;-inkscape-stroke:hairline;paint-order:stroke markers fill"
       d="m 139.54129,74.677986 h 37.36482 c 0.0461,0 0.0833,0.03715 0.0833,0.0833 v 16.804289 c 0,0.04615 -0.0371,0.0833 -0.0833,0.0833 h -37.36482 c -0.0462,0 -0.0833,-0.03715 -0.0833,-0.0833 V 74.761282 c 0,-0.04615 0.0371,-0.0833 0.0833,-0.0833 z M 162.0457,41.627872 h 21.9147 c 0.11218,0 0.20249,0.09031 0.20249,0.202489 v 40.850463 c 0,0.112179 -0.0903,0.202488 -0.20249,0.202488 h -21.9147 c -0.11217,0 -0.20248,-0.09031 -0.20248,-0.202488 V 41.830361 c 0,-0.112179 0.0903,-0.202489 0.20248,-0.202489 z M 40.331222,68.825729 h 23.205777 c 0.04398,0 0.07938,0.0354 0.07938,0.07938 v 16.014249 c 0,0.04398 -0.0354,0.07938 -0.07938,0.07938 H 40.331222 c -0.04398,0 -0.07938,-0.0354 -0.07938,-0.07938 V 68.905109 c 0,-0.04398 0.0354,-0.07938 0.07938,-0.07938 z M 76.572178,53.767906 H 125.9025 c 0.0891,0 0.16074,0.07169 0.16074,0.16074 v 32.42807 c 0,0.08905 -0.0717,0.16074 -0.16074,0.16074 H 76.572178 c -0.08905,0 -0.16074,-0.07169 -0.16074,-0.16074 v -32.42807 c 0,-0.08905 0.07169,-0.16074 0.16074,-0.16074 z M 71.298001,80.383209 H 88.73166 c 0.02423,0 0.04373,0.0195 0.04373,0.04373 v 8.822002 c 0,0.02423 -0.0195,0.04373 -0.04373,0.04373 H 71.298001 c -0.02423,0 -0.04373,-0.0195 -0.04373,-0.04373 v -8.822002 c 0,-0.02423 0.0195,-0.04373 0.04373,-0.04373 z M 11.715312,55.919533 h 40.914082 c 0.06462,0 0.116636,0.05202 0.116636,0.116636 v 23.530472 c 0,0.06462 -0.05202,0.116636 -0.116636,0.116636 H 11.715312 c -0.06462,0 -0.116636,-0.05202 -0.116636,-0.116636 V 56.036169 c 0,-0.06462 0.05202,-0.116636 0.116636,-0.116636 z m 13.329103,2.062463 q -2.58221,-0.02272 -2.537689,0.885881 l -0.04452,16.740893 q -0.04452,0.908596 2.693512,0.863166 -0.578771,1.20389 -3.717491,1.20389 -3.183242,-0.113574 -3.60619,-1.20389 2.626731,0.04543 2.648992,-0.954026 V 58.867877 q 0,-0.908596 -2.448648,-0.885881 0.712334,-1.181175 3.428106,-1.181175 2.693512,0 3.583929,1.181175 z m 17.340874,1.544614 h 2.938376 L 45.301405,79.856458 30.47596,63.320001 v 11.221167 q -0.04452,1.635475 2.203782,3.475382 -1.892136,-0.590588 -3.11646,-2.067057 -1.224324,-1.47647 -1.135281,-3.429952 V 62.138826 q -0.04452,-1.317466 -0.957199,-1.34018 H 26.31326 l 1.313365,-1.181176 h 2.671251 l 12.822008,14.355826 v -12.10705 q 0.02226,-1.544613 -2.226044,-0.976741 z m 5.787711,1.431039 0.02226,-2.021626 h 18.721021 l -0.04452,1.930767 q -0.04452,0.567873 -1.55823,1.839909 0.02226,-0.954027 -0.222604,-1.5219 -0.222605,-0.590588 -0.868158,-0.636018 h -6.900733 v 11.78904 h -2.515428 q -0.623291,-0.159003 -1.001719,-0.522443 -0.356167,-0.386153 -0.578771,-0.636017 0.356166,0 0.756855,0 0.422948,0 0.756854,-0.113574 0.333906,-0.113575 0.53425,-0.408869 0.222604,-0.318009 0.200344,-0.931312 v -9.176825 h -4.251742 q -0.578771,0.02272 -0.912677,0.249865 -0.311647,0.204433 -0.51199,0.522443 -0.178084,0.318008 -0.267126,0.726876 -0.08904,0.386154 -0.178083,0.749593 Q 48.173,61.570953 48.173,60.957649 Z m 21.080628,-1.453754 h 10.41788 v 2.112488 l -1.179802,1.749048 0.06678,-0.840453 q 0.200345,-1.453754 -2.11474,-1.431038 h -4.607909 v 5.951306 h 4.875034 q 1.246584,0.22715 2.04796,1.590045 h -6.989775 v 7.268772 h 7.679848 q 2.359606,-0.181719 4.474346,-2.839364 -1.04624,2.294206 -2.292825,3.361807 -1.246583,1.044886 -3.428105,1.24932 H 69.253628 L 67.31697,76.449221 q 1.53597,0.113575 2.0257,-0.454299 0.511989,-0.567872 0.623291,-4.224973 0.111302,-3.657101 0.02226,-9.06325 -0.04452,-2.453212 -2.404126,-1.976198 z m 15.893945,0.976741 q 0.267124,-0.249863 0.534249,-0.590587 0.289386,-0.340724 0.534251,-0.386154 H 94.9199 q 4.875035,0.02272 4.875035,4.542983 0.04455,5.883163 -6.455525,5.837733 2.047959,4.565698 5.965799,7.677641 -3.450371,0.113574 -5.075382,-2.021627 l -3.917835,-5.656014 h -0.845897 l -0.06678,7.791215 h -3.005159 q -0.489729,0 -1.202063,-1.044886 0.267125,0 0.53425,0 0.267126,0 0.48973,-0.04543 0.244865,-0.04543 0.400687,-0.159005 0.178084,-0.113574 0.222604,-0.340723 0.244865,-1.908053 0.378428,-3.884251 0.133563,-1.998912 0.155823,-3.92968 0.04452,-1.930768 -0.04452,-3.747961 -0.06678,-1.817192 -0.222604,-3.361807 -0.267126,-0.863167 -1.958917,-0.681448 z m 4.207221,7.518637 h 4.251741 q 4.385304,0.06815 4.385304,-3.92968 0,-2.839364 -4.452085,-2.998369 h -4.1627 z M 99.861716,95.438889 99.37198,56.846251 45.234622,55.892224 l 54.159622,-0.272578 0.623286,-17.831208 0.37843,17.831208 88.41842,0.613302 -88.37389,0.590587 z m 20.412814,-25.645137 0.0446,1.998912 q -0.0223,1.726333 -0.51199,3.066513 -0.48973,1.34018 -2.04796,2.68036 -0.93494,1.135746 -0.86816,2.907509 -0.4452,-0.772307 -0.35617,-1.817193 -1.46919,0.658732 -3.4281,0.840451 -4.60791,-0.113574 -7.07882,-2.45321 -2.47091,-2.362351 -2.47091,-6.65547 0,-4.656557 2.58222,-7.677641 2.5822,-3.021083 5.94353,-3.111942 l 1.31336,0.02272 q 2.49317,0.04543 3.80654,1.272035 l 0.57877,1.749049 q -0.86816,-1.29475 -2.64899,-1.635474 -2.24831,-0.499729 -4.3853,0.249864 -2.20379,0.885881 -3.53942,3.043799 -1.73631,2.385066 -1.73631,6.110311 0.31164,4.179545 2.58221,5.974023 2.29283,1.794478 5.43155,1.544613 3.96235,-0.545157 5.23119,-4.838276 0.17809,-1.567329 -0.089,-2.021627 -0.24487,-0.454299 -2.33735,-0.590588 l 1.0685,-0.636018 z m 14.13537,-14.923699 11.48638,23.62351 q 1.58049,3.180088 4.22949,4.565698 -4.40757,-0.340724 -5.92128,-3.066514 l -5.94354,-11.357456 h -8.10279 l -3.11646,6.223886 q -0.69008,1.590044 2.44864,1.431039 -1.2911,1.340181 -2.60446,1.340181 h -3.36133 z m -0.17808,5.40615 -3.49489,6.882618 6.78943,0.02272 z m 11.04117,0.681446 0.0223,-2.021626 h 18.72101 l -0.0445,1.930767 q -0.0445,0.567873 -1.55823,1.839909 0.0223,-0.954027 -0.2226,-1.5219 -0.22261,-0.590588 -0.86816,-0.636018 h -6.90073 v 11.78904 h -2.51543 q -0.62329,-0.159003 -1.00172,-0.522443 -0.35616,-0.386153 -0.57877,-0.636017 0.35616,0 0.75685,0 0.42296,0 0.75686,-0.113574 0.3339,-0.113575 0.53425,-0.408869 0.22261,-0.318009 0.20034,-0.931312 v -9.176825 h -4.25174 q -0.57877,0.02272 -0.91267,0.249865 -0.31166,0.204433 -0.51199,0.522443 -0.17809,0.318008 -0.26713,0.726876 -0.0891,0.386154 -0.17808,0.749593 -1.17981,-1.226605 -1.17981,-1.839909 z m 26.31182,-17.308764 q 4.09592,0.227149 6.96751,1.590045 2.89386,1.362894 5.8545,4.429408 3.33906,4.179544 4.36304,9.903703 l -1.0685,-3.270949 q -1.53597,-3.452666 -4.00688,-6.087597 -3.29454,-3.339092 -8.36992,-4.906421 -2.69351,-0.795022 -6.05484,-0.636017 -2.82707,-0.02272 -5.80997,1.24932 -2.9829,1.272035 -6.43326,4.565697 3.67297,-4.565697 7.1456,-5.678728 3.47262,-1.113031 7.41272,-1.158461 z m -5.63189,12.15248 h 11.97611 v 2.248775 l -0.84589,1.249321 q 0.13356,-1.953483 -1.04625,-1.839908 l -7.30142,-0.113575 0.0223,9.24497 h 4.8973 q 1.38015,0.13629 2.29283,1.612759 h -7.01204 l -0.20035,1.47647 v 7.995649 h 6.52231 q 2.47091,0.06815 5.27572,-2.793934 -1.00172,2.657645 -3.51715,4.452123 -2.51543,1.794479 -2.64899,4.883707 4.63017,-1.408325 9.14904,-5.338005 1.40241,-1.408325 2.60447,-3.270947 1.20206,-1.885339 1.98118,-4.361264 l 0.77911,-2.63493 q -0.82363,4.088685 -1.75857,6.064882 -0.93494,1.953482 -2.93838,4.474838 -2.69351,2.930224 -5.65415,4.497553 -1.53597,0.954027 -3.58393,1.567329 -2.04796,0.636017 -5.80997,0.704162 -4.18495,-0.04543 -8.39218,-1.976198 -4.00687,-2.067056 -6.52231,-5.678728 -0.24486,-0.522443 -0.3339,-1.044885 5.18668,5.860447 11.21925,7.109767 4.56339,0.885882 8.92644,-0.04543 -0.48974,-2.475925 0.26712,-4.452122 h -8.41444 l -1.53597,-1.067602 q 1.98118,0.04543 2.18152,-1.044886 0.2226,-1.090316 0.28938,-2.067056 0.31165,-8.427234 0.20035,-15.559716 -0.13356,-1.34018 -0.40069,-2.339637 -0.13355,-0.681447 -1.13528,-0.795022 l -1.13528,0.09086 z" />        
  </g>
</svg>
